<svg width="19" height="32" viewBox="0 0 19 32" fill="none" xmlns="http://www.w3.org/2000/svg">
<path d="M10.8958 14.2836C11.2603 11.4845 13.7122 8.95173 18.1981 6.7455L19 6.35118L15.7443 0.182922L14.9832 0.566993C5.37633 5.41438 0.505316 12.2656 0.505316 20.9302C0.505316 23.9215 1.4664 26.5047 3.36173 28.6081C5.28068 30.7375 7.59347 31.8173 10.2364 31.8173C12.6161 31.8173 14.6222 30.9693 16.1989 29.2969C17.7621 27.6389 18.5547 25.5802 18.5547 23.178C18.5547 20.9057 17.7416 18.8806 16.1382 17.1592C14.7267 15.644 12.9659 14.6789 10.8958 14.2836ZM14.9353 28.1054C13.6821 29.4344 12.1452 30.0805 10.2364 30.0805C8.07647 30.0805 6.2498 29.2186 4.652 27.4454C3.03032 25.6458 2.24208 23.5147 2.24208 20.9302C2.24208 16.96 3.36534 13.3755 5.58018 10.2765C7.69355 7.31997 10.8629 4.70957 15.0084 2.50941L16.6355 5.59247C11.6416 8.22937 9.11121 11.3987 9.11121 15.0217V15.7957L9.87993 15.8844C11.9133 16.1191 13.5446 16.9234 14.8673 18.3432C16.1799 19.7522 16.8179 21.3337 16.8179 23.1781C16.818 25.15 16.2021 26.7618 14.9353 28.1054Z" fill="#8643DC"/>
</svg>
